# Blender v2.80 (sub 35) OBJ File: ''
# www.blender.org
mtllib grid.mtl
o Cube
v 2.819185 3.271241 2.168600
v 2.819185 -2.367128 2.168600
v 2.819185 3.271241 2.510887
v 2.819185 -2.367128 2.510887
v -2.819185 3.271241 2.168600
v -2.819185 -2.367128 2.168600
v -2.819185 3.271241 2.510887
v -2.819185 -2.367128 2.510887
v 2.819185 3.271241 1.484025
v 2.819185 -2.367128 1.484025
v 2.819185 3.271241 1.826312
v 2.819185 -2.367128 1.826312
v -2.819185 3.271241 1.484025
v -2.819185 -2.367128 1.484025
v -2.819185 3.271241 1.826312
v -2.819185 -2.367128 1.826312
v 2.819185 3.271241 0.799450
v 2.819185 -2.367128 0.799450
v 2.819185 3.271241 1.141737
v 2.819185 -2.367128 1.141737
v -2.819185 3.271241 0.799450
v -2.819185 -2.367128 0.799450
v -2.819185 3.271241 1.141737
v -2.819185 -2.367128 1.141737
v 2.819185 3.271241 0.114875
v 2.819185 -2.367128 0.114875
v 2.819185 3.271241 0.457162
v 2.819185 -2.367128 0.457162
v -2.819185 3.271241 0.114875
v -2.819185 -2.367128 0.114875
v -2.819185 3.271241 0.457162
v -2.819185 -2.367128 0.457162
v 2.819185 3.271241 -0.569700
v 2.819185 -2.367128 -0.569700
v 2.819185 3.271241 -0.227413
v 2.819185 -2.367128 -0.227413
v -2.819185 3.271241 -0.569700
v -2.819185 -2.367128 -0.569700
v -2.819185 3.271241 -0.227413
v -2.819185 -2.367128 -0.227413
v 2.819185 3.271241 -1.254276
v 2.819185 -2.367128 -1.254276
v 2.819185 3.271241 -0.911988
v 2.819185 -2.367128 -0.911988
v -2.819185 3.271241 -1.254276
v -2.819185 -2.367128 -1.254276
v -2.819185 3.271241 -0.911988
v -2.819185 -2.367128 -0.911988
v 2.819185 3.271241 -1.938850
v 2.819185 -2.367128 -1.938850
v 2.819185 3.271241 -1.596563
v 2.819185 -2.367128 -1.596563
v -2.819185 3.271241 -1.938850
v -2.819185 -2.367128 -1.938850
v -2.819185 3.271241 -1.596563
v -2.819185 -2.367128 -1.596563
v 2.819185 3.271241 -2.623425
v 2.819185 -2.367128 -2.623425
v 2.819185 3.271241 -2.281138
v 2.819185 -2.367128 -2.281138
v -2.819185 3.271241 -2.623425
v -2.819185 -2.367128 -2.623425
v -2.819185 3.271241 -2.281138
v -2.819185 -2.367128 -2.281138
vt 0.375000 0.000000
vt 0.625000 0.000000
vt 0.625000 0.250000
vt 0.375000 0.250000
vt 0.375000 0.250000
vt 0.625000 0.250000
vt 0.625000 0.500000
vt 0.375000 0.500000
vt 0.625000 0.750000
vt 0.375000 0.750000
vt 0.625000 0.750000
vt 0.625000 1.000000
vt 0.375000 1.000000
vt 0.125000 0.500000
vt 0.375000 0.500000
vt 0.375000 0.750000
vt 0.125000 0.750000
vt 0.625000 0.500000
vt 0.875000 0.500000
vt 0.875000 0.750000
vt 0.375000 0.000000
vt 0.625000 0.000000
vt 0.625000 0.250000
vt 0.375000 0.250000
vt 0.375000 0.250000
vt 0.625000 0.250000
vt 0.625000 0.500000
vt 0.375000 0.500000
vt 0.625000 0.750000
vt 0.375000 0.750000
vt 0.625000 0.750000
vt 0.625000 1.000000
vt 0.375000 1.000000
vt 0.125000 0.500000
vt 0.375000 0.500000
vt 0.375000 0.750000
vt 0.125000 0.750000
vt 0.625000 0.500000
vt 0.875000 0.500000
vt 0.875000 0.750000
vt 0.375000 0.000000
vt 0.625000 0.000000
vt 0.625000 0.250000
vt 0.375000 0.250000
vt 0.375000 0.250000
vt 0.625000 0.250000
vt 0.625000 0.500000
vt 0.375000 0.500000
vt 0.625000 0.750000
vt 0.375000 0.750000
vt 0.625000 0.750000
vt 0.625000 1.000000
vt 0.375000 1.000000
vt 0.125000 0.500000
vt 0.375000 0.500000
vt 0.375000 0.750000
vt 0.125000 0.750000
vt 0.625000 0.500000
vt 0.875000 0.500000
vt 0.875000 0.750000
vt 0.375000 0.000000
vt 0.625000 0.000000
vt 0.625000 0.250000
vt 0.375000 0.250000
vt 0.375000 0.250000
vt 0.625000 0.250000
vt 0.625000 0.500000
vt 0.375000 0.500000
vt 0.625000 0.750000
vt 0.375000 0.750000
vt 0.625000 0.750000
vt 0.625000 1.000000
vt 0.375000 1.000000
vt 0.125000 0.500000
vt 0.375000 0.500000
vt 0.375000 0.750000
vt 0.125000 0.750000
vt 0.625000 0.500000
vt 0.875000 0.500000
vt 0.875000 0.750000
vt 0.375000 0.000000
vt 0.625000 0.000000
vt 0.625000 0.250000
vt 0.375000 0.250000
vt 0.375000 0.250000
vt 0.625000 0.250000
vt 0.625000 0.500000
vt 0.375000 0.500000
vt 0.625000 0.750000
vt 0.375000 0.750000
vt 0.625000 0.750000
vt 0.625000 1.000000
vt 0.375000 1.000000
vt 0.125000 0.500000
vt 0.375000 0.500000
vt 0.375000 0.750000
vt 0.125000 0.750000
vt 0.625000 0.500000
vt 0.875000 0.500000
vt 0.875000 0.750000
vt 0.375000 0.000000
vt 0.625000 0.000000
vt 0.625000 0.250000
vt 0.375000 0.250000
vt 0.375000 0.250000
vt 0.625000 0.250000
vt 0.625000 0.500000
vt 0.375000 0.500000
vt 0.625000 0.750000
vt 0.375000 0.750000
vt 0.625000 0.750000
vt 0.625000 1.000000
vt 0.375000 1.000000
vt 0.125000 0.500000
vt 0.375000 0.500000
vt 0.375000 0.750000
vt 0.125000 0.750000
vt 0.625000 0.500000
vt 0.875000 0.500000
vt 0.875000 0.750000
vt 0.375000 0.000000
vt 0.625000 0.000000
vt 0.625000 0.250000
vt 0.375000 0.250000
vt 0.375000 0.250000
vt 0.625000 0.250000
vt 0.625000 0.500000
vt 0.375000 0.500000
vt 0.625000 0.750000
vt 0.375000 0.750000
vt 0.625000 0.750000
vt 0.625000 1.000000
vt 0.375000 1.000000
vt 0.125000 0.500000
vt 0.375000 0.500000
vt 0.375000 0.750000
vt 0.125000 0.750000
vt 0.625000 0.500000
vt 0.875000 0.500000
vt 0.875000 0.750000
vt 0.375000 0.000000
vt 0.625000 0.000000
vt 0.625000 0.250000
vt 0.375000 0.250000
vt 0.375000 0.250000
vt 0.625000 0.250000
vt 0.625000 0.500000
vt 0.375000 0.500000
vt 0.625000 0.750000
vt 0.375000 0.750000
vt 0.625000 0.750000
vt 0.625000 1.000000
vt 0.375000 1.000000
vt 0.125000 0.500000
vt 0.375000 0.500000
vt 0.375000 0.750000
vt 0.125000 0.750000
vt 0.625000 0.500000
vt 0.875000 0.500000
vt 0.875000 0.750000
vn 0.0000 1.0000 0.0000
vn 0.0000 0.0000 1.0000
vn -1.0000 0.0000 0.0000
vn 0.0000 -1.0000 0.0000
vn 1.0000 0.0000 0.0000
vn 0.0000 0.0000 -1.0000
usemtl Material
s off
f 1/1/1 5/2/1 7/3/1 3/4/1
f 4/5/2 3/6/2 7/7/2 8/8/2
f 8/8/3 7/7/3 5/9/3 6/10/3
f 6/10/4 2/11/4 4/12/4 8/13/4
f 2/14/5 1/15/5 3/16/5 4/17/5
f 6/18/6 5/19/6 1/20/6 2/11/6
f 9/21/1 13/22/1 15/23/1 11/24/1
f 12/25/2 11/26/2 15/27/2 16/28/2
f 16/28/3 15/27/3 13/29/3 14/30/3
f 14/30/4 10/31/4 12/32/4 16/33/4
f 10/34/5 9/35/5 11/36/5 12/37/5
f 14/38/6 13/39/6 9/40/6 10/31/6
f 17/41/1 21/42/1 23/43/1 19/44/1
f 20/45/2 19/46/2 23/47/2 24/48/2
f 24/48/3 23/47/3 21/49/3 22/50/3
f 22/50/4 18/51/4 20/52/4 24/53/4
f 18/54/5 17/55/5 19/56/5 20/57/5
f 22/58/6 21/59/6 17/60/6 18/51/6
f 25/61/1 29/62/1 31/63/1 27/64/1
f 28/65/2 27/66/2 31/67/2 32/68/2
f 32/68/3 31/67/3 29/69/3 30/70/3
f 30/70/4 26/71/4 28/72/4 32/73/4
f 26/74/5 25/75/5 27/76/5 28/77/5
f 30/78/6 29/79/6 25/80/6 26/71/6
f 33/81/1 37/82/1 39/83/1 35/84/1
f 36/85/2 35/86/2 39/87/2 40/88/2
f 40/88/3 39/87/3 37/89/3 38/90/3
f 38/90/4 34/91/4 36/92/4 40/93/4
f 34/94/5 33/95/5 35/96/5 36/97/5
f 38/98/6 37/99/6 33/100/6 34/91/6
f 41/101/1 45/102/1 47/103/1 43/104/1
f 44/105/2 43/106/2 47/107/2 48/108/2
f 48/108/3 47/107/3 45/109/3 46/110/3
f 46/110/4 42/111/4 44/112/4 48/113/4
f 42/114/5 41/115/5 43/116/5 44/117/5
f 46/118/6 45/119/6 41/120/6 42/111/6
f 49/121/1 53/122/1 55/123/1 51/124/1
f 52/125/2 51/126/2 55/127/2 56/128/2
f 56/128/3 55/127/3 53/129/3 54/130/3
f 54/130/4 50/131/4 52/132/4 56/133/4
f 50/134/5 49/135/5 51/136/5 52/137/5
f 54/138/6 53/139/6 49/140/6 50/131/6
f 57/141/1 61/142/1 63/143/1 59/144/1
f 60/145/2 59/146/2 63/147/2 64/148/2
f 64/148/3 63/147/3 61/149/3 62/150/3
f 62/150/4 58/151/4 60/152/4 64/153/4
f 58/154/5 57/155/5 59/156/5 60/157/5
f 62/158/6 61/159/6 57/160/6 58/151/6
o Cube.001
v 2.819185 -1.818708 2.835487
v 2.819185 -1.818708 -2.802882
v 2.819185 -2.160995 2.835487
v 2.819185 -2.160995 -2.802882
v -2.819185 -1.818708 2.835487
v -2.819185 -1.818708 -2.802882
v -2.819185 -2.160995 2.835487
v -2.819185 -2.160995 -2.802882
v 2.819185 -1.134133 2.835487
v 2.819185 -1.134133 -2.802882
v 2.819185 -1.476420 2.835487
v 2.819185 -1.476420 -2.802882
v -2.819185 -1.134133 2.835487
v -2.819185 -1.134133 -2.802882
v -2.819185 -1.476420 2.835487
v -2.819185 -1.476420 -2.802882
v 2.819185 -0.449558 2.835487
v 2.819185 -0.449558 -2.802882
v 2.819185 -0.791845 2.835487
v 2.819185 -0.791845 -2.802882
v -2.819185 -0.449558 2.835487
v -2.819185 -0.449558 -2.802882
v -2.819185 -0.791845 2.835487
v -2.819185 -0.791845 -2.802882
v 2.819185 0.235017 2.835487
v 2.819185 0.235018 -2.802882
v 2.819185 -0.107270 2.835487
v 2.819185 -0.107270 -2.802882
v -2.819185 0.235017 2.835487
v -2.819185 0.235018 -2.802882
v -2.819185 -0.107270 2.835487
v -2.819185 -0.107270 -2.802882
v 2.819185 0.919592 2.835487
v 2.819185 0.919593 -2.802882
v 2.819185 0.577305 2.835487
v 2.819185 0.577305 -2.802882
v -2.819185 0.919592 2.835487
v -2.819185 0.919593 -2.802882
v -2.819185 0.577305 2.835487
v -2.819185 0.577305 -2.802882
v 2.819185 1.604167 2.835487
v 2.819185 1.604168 -2.802882
v 2.819185 1.261880 2.835487
v 2.819185 1.261880 -2.802882
v -2.819185 1.604167 2.835487
v -2.819185 1.604168 -2.802882
v -2.819185 1.261880 2.835487
v -2.819185 1.261880 -2.802882
v 2.819185 2.288743 2.835487
v 2.819185 2.288743 -2.802882
v 2.819185 1.946455 2.835487
v 2.819185 1.946455 -2.802882
v -2.819185 2.288743 2.835487
v -2.819185 2.288743 -2.802882
v -2.819185 1.946455 2.835487
v -2.819185 1.946455 -2.802882
v 2.819185 2.973318 2.835487
v 2.819185 2.973318 -2.802882
v 2.819185 2.631031 2.835487
v 2.819185 2.631031 -2.802882
v -2.819185 2.973318 2.835487
v -2.819185 2.973318 -2.802882
v -2.819185 2.631031 2.835487
v -2.819185 2.631031 -2.802882
vt 0.375000 0.000000
vt 0.625000 0.000000
vt 0.625000 0.250000
vt 0.375000 0.250000
vt 0.375000 0.250000
vt 0.625000 0.250000
vt 0.625000 0.500000
vt 0.375000 0.500000
vt 0.625000 0.750000
vt 0.375000 0.750000
vt 0.625000 0.750000
vt 0.625000 1.000000
vt 0.375000 1.000000
vt 0.125000 0.500000
vt 0.375000 0.500000
vt 0.375000 0.750000
vt 0.125000 0.750000
vt 0.625000 0.500000
vt 0.875000 0.500000
vt 0.875000 0.750000
vt 0.375000 0.000000
vt 0.625000 0.000000
vt 0.625000 0.250000
vt 0.375000 0.250000
vt 0.375000 0.250000
vt 0.625000 0.250000
vt 0.625000 0.500000
vt 0.375000 0.500000
vt 0.625000 0.750000
vt 0.375000 0.750000
vt 0.625000 0.750000
vt 0.625000 1.000000
vt 0.375000 1.000000
vt 0.125000 0.500000
vt 0.375000 0.500000
vt 0.375000 0.750000
vt 0.125000 0.750000
vt 0.625000 0.500000
vt 0.875000 0.500000
vt 0.875000 0.750000
vt 0.375000 0.000000
vt 0.625000 0.000000
vt 0.625000 0.250000
vt 0.375000 0.250000
vt 0.375000 0.250000
vt 0.625000 0.250000
vt 0.625000 0.500000
vt 0.375000 0.500000
vt 0.625000 0.750000
vt 0.375000 0.750000
vt 0.625000 0.750000
vt 0.625000 1.000000
vt 0.375000 1.000000
vt 0.125000 0.500000
vt 0.375000 0.500000
vt 0.375000 0.750000
vt 0.125000 0.750000
vt 0.625000 0.500000
vt 0.875000 0.500000
vt 0.875000 0.750000
vt 0.375000 0.000000
vt 0.625000 0.000000
vt 0.625000 0.250000
vt 0.375000 0.250000
vt 0.375000 0.250000
vt 0.625000 0.250000
vt 0.625000 0.500000
vt 0.375000 0.500000
vt 0.625000 0.750000
vt 0.375000 0.750000
vt 0.625000 0.750000
vt 0.625000 1.000000
vt 0.375000 1.000000
vt 0.125000 0.500000
vt 0.375000 0.500000
vt 0.375000 0.750000
vt 0.125000 0.750000
vt 0.625000 0.500000
vt 0.875000 0.500000
vt 0.875000 0.750000
vt 0.375000 0.000000
vt 0.625000 0.000000
vt 0.625000 0.250000
vt 0.375000 0.250000
vt 0.375000 0.250000
vt 0.625000 0.250000
vt 0.625000 0.500000
vt 0.375000 0.500000
vt 0.625000 0.750000
vt 0.375000 0.750000
vt 0.625000 0.750000
vt 0.625000 1.000000
vt 0.375000 1.000000
vt 0.125000 0.500000
vt 0.375000 0.500000
vt 0.375000 0.750000
vt 0.125000 0.750000
vt 0.625000 0.500000
vt 0.875000 0.500000
vt 0.875000 0.750000
vt 0.375000 0.000000
vt 0.625000 0.000000
vt 0.625000 0.250000
vt 0.375000 0.250000
vt 0.375000 0.250000
vt 0.625000 0.250000
vt 0.625000 0.500000
vt 0.375000 0.500000
vt 0.625000 0.750000
vt 0.375000 0.750000
vt 0.625000 0.750000
vt 0.625000 1.000000
vt 0.375000 1.000000
vt 0.125000 0.500000
vt 0.375000 0.500000
vt 0.375000 0.750000
vt 0.125000 0.750000
vt 0.625000 0.500000
vt 0.875000 0.500000
vt 0.875000 0.750000
vt 0.375000 0.000000
vt 0.625000 0.000000
vt 0.625000 0.250000
vt 0.375000 0.250000
vt 0.375000 0.250000
vt 0.625000 0.250000
vt 0.625000 0.500000
vt 0.375000 0.500000
vt 0.625000 0.750000
vt 0.375000 0.750000
vt 0.625000 0.750000
vt 0.625000 1.000000
vt 0.375000 1.000000
vt 0.125000 0.500000
vt 0.375000 0.500000
vt 0.375000 0.750000
vt 0.125000 0.750000
vt 0.625000 0.500000
vt 0.875000 0.500000
vt 0.875000 0.750000
vt 0.375000 0.000000
vt 0.625000 0.000000
vt 0.625000 0.250000
vt 0.375000 0.250000
vt 0.375000 0.250000
vt 0.625000 0.250000
vt 0.625000 0.500000
vt 0.375000 0.500000
vt 0.625000 0.750000
vt 0.375000 0.750000
vt 0.625000 0.750000
vt 0.625000 1.000000
vt 0.375000 1.000000
vt 0.125000 0.500000
vt 0.375000 0.500000
vt 0.375000 0.750000
vt 0.125000 0.750000
vt 0.625000 0.500000
vt 0.875000 0.500000
vt 0.875000 0.750000
vn 0.0000 0.0000 1.0000
vn 0.0000 -1.0000 -0.0000
vn -1.0000 0.0000 0.0000
vn 0.0000 0.0000 -1.0000
vn 1.0000 0.0000 0.0000
vn 0.0000 1.0000 0.0000
usemtl Material.001
s off
f 65/161/7 69/162/7 71/163/7 67/164/7
f 68/165/8 67/166/8 71/167/8 72/168/8
f 72/168/9 71/167/9 69/169/9 70/170/9
f 70/170/10 66/171/10 68/172/10 72/173/10
f 66/174/11 65/175/11 67/176/11 68/177/11
f 70/178/12 69/179/12 65/180/12 66/171/12
f 73/181/7 77/182/7 79/183/7 75/184/7
f 76/185/8 75/186/8 79/187/8 80/188/8
f 80/188/9 79/187/9 77/189/9 78/190/9
f 78/190/10 74/191/10 76/192/10 80/193/10
f 74/194/11 73/195/11 75/196/11 76/197/11
f 78/198/12 77/199/12 73/200/12 74/191/12
f 81/201/7 85/202/7 87/203/7 83/204/7
f 84/205/8 83/206/8 87/207/8 88/208/8
f 88/208/9 87/207/9 85/209/9 86/210/9
f 86/210/10 82/211/10 84/212/10 88/213/10
f 82/214/11 81/215/11 83/216/11 84/217/11
f 86/218/12 85/219/12 81/220/12 82/211/12
f 89/221/7 93/222/7 95/223/7 91/224/7
f 92/225/8 91/226/8 95/227/8 96/228/8
f 96/228/9 95/227/9 93/229/9 94/230/9
f 94/230/10 90/231/10 92/232/10 96/233/10
f 90/234/11 89/235/11 91/236/11 92/237/11
f 94/238/12 93/239/12 89/240/12 90/231/12
f 97/241/7 101/242/7 103/243/7 99/244/7
f 100/245/8 99/246/8 103/247/8 104/248/8
f 104/248/9 103/247/9 101/249/9 102/250/9
f 102/250/10 98/251/10 100/252/10 104/253/10
f 98/254/11 97/255/11 99/256/11 100/257/11
f 102/258/12 101/259/12 97/260/12 98/251/12
f 105/261/7 109/262/7 111/263/7 107/264/7
f 108/265/8 107/266/8 111/267/8 112/268/8
f 112/268/9 111/267/9 109/269/9 110/270/9
f 110/270/10 106/271/10 108/272/10 112/273/10
f 106/274/11 105/275/11 107/276/11 108/277/11
f 110/278/12 109/279/12 105/280/12 106/271/12
f 113/281/7 117/282/7 119/283/7 115/284/7
f 116/285/8 115/286/8 119/287/8 120/288/8
f 120/288/9 119/287/9 117/289/9 118/290/9
f 118/290/10 114/291/10 116/292/10 120/293/10
f 114/294/11 113/295/11 115/296/11 116/297/11
f 118/298/12 117/299/12 113/300/12 114/291/12
f 121/301/7 125/302/7 127/303/7 123/304/7
f 124/305/8 123/306/8 127/307/8 128/308/8
f 128/308/9 127/307/9 125/309/9 126/310/9
f 126/310/10 122/311/10 124/312/10 128/313/10
f 122/314/11 121/315/11 123/316/11 124/317/11
f 126/318/12 125/319/12 121/320/12 122/311/12
